<?xml version="1.0" encoding="UTF-8" standalone="no"?>
<svg
   xmlns:dc="http://purl.org/dc/elements/1.1/"
   xmlns:cc="http://creativecommons.org/ns#"
   xmlns:rdf="http://www.w3.org/1999/02/22-rdf-syntax-ns#"
   xmlns:svg="http://www.w3.org/2000/svg"
   xmlns="http://www.w3.org/2000/svg"
   xmlns:sodipodi="http://sodipodi.sourceforge.net/DTD/sodipodi-0.dtd"
   xmlns:inkscape="http://www.inkscape.org/namespaces/inkscape"
   inkscape:version="1.0 (4035a4fb49, 2020-05-01)"
   sodipodi:docname="calendar-symbolic.svg"
   id="svg6"
   version="1.1"
   width="16"
   height="16">
  <metadata
     id="metadata12">
    <rdf:RDF>
      <cc:Work
         rdf:about="">
        <dc:format>image/svg+xml</dc:format>
        <dc:type
           rdf:resource="http://purl.org/dc/dcmitype/StillImage" />
      </cc:Work>
    </rdf:RDF>
  </metadata>
  <defs
     id="defs10" />
  <sodipodi:namedview
     inkscape:current-layer="svg6"
     inkscape:window-maximized="1"
     inkscape:window-y="30"
     inkscape:window-x="0"
     inkscape:cy="4.5311653"
     inkscape:cx="8"
     inkscape:zoom="23.0625"
     showgrid="false"
     id="namedview8"
     inkscape:window-height="705"
     inkscape:window-width="1366"
     inkscape:pageshadow="2"
     inkscape:pageopacity="0"
     guidetolerance="10"
     gridtolerance="10"
     objecttolerance="10"
     borderopacity="1"
     bordercolor="#666666"
     pagecolor="#ffffff" />
  <g
     style="fill:#ffffff;fill-opacity:1"
     id="g4"
     transform="translate(-833.15,-525)">
    <path
       id="path2"
       style="isolation:auto;mix-blend-mode:normal;marker:none;fill:#ffffff;fill-opacity:1"
       overflow="visible"
       fill="#666666"
       d="m 837.5,525 c -0.277,0 -0.5,0.227 -0.5,0.5 v 0.5 h 1 v -0.5 c 0,-0.277 -0.223,-0.5 -0.5,-0.5 z m 0.5,1 v 0.5 a 0.5,0.5 0 1 1 -1,0 V 526 h -1.5 c -0.831,0 -1.5,0.669 -1.5,1.5 v 9 c 0,0.831 0.669,1.5 1.5,1.5 h 9 c 0.831,0 1.5,-0.669 1.5,-1.5 v -9 c 0,-0.831 -0.669,-1.5 -1.5,-1.5 H 843 v 0.5 a 0.5,0.5 0 1 1 -1,0 V 526 Z m 4,0 h 1 v -0.5 a 0.5,0.5 0 1 0 -1,0 z m -6.5,4 h 9 c 0.277,0 0.5,0.223 0.5,0.5 v 6 c 0,0.277 -0.223,0.5 -0.5,0.5 h -9 a 0.499,0.499 0 0 1 -0.5,-0.5 v -6 c 0,-0.277 0.223,-0.5 0.5,-0.5 z"
       color="#bebebe" />
  </g>
</svg>
